<?xml version="1.0" standalone="no"?>
<!DOCTYPE svg PUBLIC "-//W3C//DTD SVG 20010904//EN"
 "http://www.w3.org/TR/2001/REC-SVG-20010904/DTD/svg10.dtd">
<svg version="1.0" xmlns="http://www.w3.org/2000/svg"
 width="1280.000000pt" height="934.000000pt" viewBox="0 0 1280.000000 934.000000"
 preserveAspectRatio="xMidYMid meet">
<metadata>
Created by potrace 1.15, written by Peter Selinger 2001-2017
</metadata>
<g transform="translate(0.000000,934.000000) scale(0.100000,-0.100000)"
fill="#000000" stroke="none">
<path d="M2360 9319 c-58 -10 -356 -63 -663 -118 -597 -106 -596 -106 -611
-165 -3 -13 62 -295 153 -662 88 -351 207 -835 266 -1074 59 -239 108 -436
109 -437 1 -2 120 35 921 287 231 73 485 152 565 177 80 25 150 48 156 51 8 5
-19 91 -81 262 -187 520 -297 825 -439 1220 -80 223 -152 416 -159 429 -12 25
-63 52 -94 50 -10 -1 -65 -10 -123 -20z"/>
<path d="M2940 7220 c-190 -60 -558 -176 -817 -257 -260 -81 -473 -150 -473
-153 0 -3 48 -49 108 -101 227 -202 1878 -1663 1902 -1684 l25 -23 370 170
c204 93 389 177 412 186 l43 16 30 -34 c16 -19 29 -37 29 -40 0 -3 -173 -88
-385 -190 -411 -197 -459 -227 -546 -334 -102 -128 -142 -252 -142 -446 0
-146 17 -239 69 -376 l26 -69 -22 -17 c-27 -23 -32 -23 -66 6 -47 39 -291 199
-403 263 -507 292 -1113 487 -1655 534 -165 14 -446 7 -585 -15 -370 -59 -712
-226 -803 -393 -215 -397 201 -1211 1044 -2038 204 -200 377 -354 576 -513 73
-58 129 -110 126 -116 -4 -5 -117 -161 -252 -345 -302 -415 -291 -398 -291
-430 0 -66 52 -68 111 -3 32 34 553 651 575 681 2 2 43 -26 91 -61 704 -519
1482 -930 2028 -1073 394 -104 681 -98 898 17 70 38 111 82 149 165 27 57 31
79 40 221 50 750 -285 1630 -911 2391 -51 63 -85 111 -75 107 79 -31 151 -50
225 -59 141 -18 302 23 418 106 85 61 1129 737 1138 737 4 0 23 -13 41 -28
l34 -28 -430 -285 c-237 -156 -431 -287 -431 -291 -1 -11 2678 -2323 2692
-2323 14 0 1828 1624 1826 1635 0 3 -625 421 -1389 928 l-1388 924 -347 -232
c-191 -127 -350 -228 -354 -223 -3 4 -16 20 -29 34 l-23 26 438 283 c505 327
558 371 632 521 62 126 74 182 75 339 0 160 -21 257 -84 387 -76 157 -245 300
-422 357 -115 37 -146 41 -293 40 -242 -2 -234 1 -1042 -389 -381 -184 -696
-335 -700 -335 -4 0 -27 13 -51 28 l-43 29 401 183 c221 101 397 186 393 191
-16 14 -2148 1501 -2158 1504 -5 2 -165 -45 -355 -105z"/>
<path d="M8875 1889 c-489 -446 -903 -821 -919 -835 -33 -28 -33 -28 14 -42
19 -6 141 -46 270 -90 129 -44 341 -116 470 -160 129 -44 435 -149 680 -232
445 -152 712 -243 1145 -390 127 -43 270 -92 319 -109 106 -37 149 -39 203 -8
62 34 1743 1890 1743 1924 0 31 -74 109 -110 117 -14 4 -407 89 -875 191 -467
101 -1120 243 -1449 315 -330 71 -600 130 -600 129 -1 0 -401 -365 -891 -810z"/>
</g>
</svg>
